<svg xmlns="http://www.w3.org/2000/svg"  id="svg3638" height="297mm" width="210mm">
    <g id="g4101" transform="matrix(9.372 0 0 9.372 -3581.1 -3868.4)">
      <rect id="rect4074" ry="2.4892" height="35.09" width="35.09" y="459.14" x="402.97" fill="#999"/>
      <rect id="rect4081" transform="matrix(.37892 .92543 -.37892 .92543 0 0)" height="28.045" width="28.045" y="-322.91" x="786.86" fill="#fff"/>
      <path id="path4072" d="m418.26 573.69a10.688 10.688 0 1 1 -21.38 0 10.688 10.688 0 1 1 21.38 0z" fill="#999" transform="translate(12.942 -128.06)"/>
      <g id="g4083" fill="#808080" transform="matrix(.34373 0 0 .34373 239.69 290.7)">
        <rect id="rect4076" transform="rotate(45)" ry="0" height="15.558" width="15.558" y="-28.433" x="715.53"/>
        <path id="rect4078" d="m726.96-17.002h15.56l21.67 37.234-37.23-21.676v-15.558z" transform="rotate(45)"/>
    </g>
  </g>
 
</svg>
